<svg width="24" height="24" viewBox="0 0 24 24" fill="none" xmlns="http://www.w3.org/2000/svg">
<g clip-path="url(#clip0_1059_26493)">
<path d="M0.386341 4.72559C0.386341 2.32283 2.33226 0.375002 4.73267 0.375002C4.73267 0.375002 9.15816 -0.000947624 12 1.79522e-06C14.8236 0.000945107 19.2205 0.375002 19.2205 0.375002C21.6209 0.375002 23.5668 2.32283 23.5668 4.72559C23.5668 4.72559 23.9531 9.14086 23.9531 11.9766C23.9531 14.8123 23.5668 19.2275 23.5668 19.2275C23.5668 21.6303 21.6209 23.5781 19.2205 23.5781C19.2205 23.5781 14.8246 23.9989 12 24C9.15715 24.0011 4.73267 23.5781 4.73267 23.5781C2.33226 23.5781 0.386341 21.6303 0.386341 19.2275C0.386341 19.2275 0 14.8123 0 11.9766C0 9.14086 0.386341 4.72559 0.386341 4.72559Z" fill="black"/>
<g clip-path="url(#clip1_1059_26493)">
<rect x="4" y="8.25" width="2.4" height="8.5" rx="1.2" fill="white"/>
<rect x="17.6001" y="9.95" width="2.4" height="5.1" rx="1.2" fill="white"/>
<path fill-rule="evenodd" clip-rule="evenodd" d="M16 11.5429C15.7443 11.6128 15.4763 11.65 15.2 11.65C13.4327 11.65 12 10.1278 12 8.25C12 7.29876 12.3677 6.43876 12.9603 5.82166C12.6526 5.74217 12.331 5.7 12 5.7C9.79086 5.7 8 7.57823 8 9.89516V15.1048C8 17.4218 9.79086 19.3 12 19.3C14.2091 19.3 16 17.4218 16 15.1048V11.5429Z" fill="white"/>
<path d="M14.9573 6.76058C15.0113 6.47981 15.3889 6.47981 15.4429 6.76058C15.5622 7.38068 16.0183 7.86529 16.6019 7.99203C16.8662 8.04942 16.8662 8.45059 16.6019 8.50797C16.0183 8.63472 15.5622 9.11932 15.4429 9.73943C15.3889 10.0202 15.0113 10.0202 14.9573 9.73943C14.838 9.11932 14.3819 8.63472 13.7983 8.50797C13.534 8.45059 13.534 8.04942 13.7983 7.99203C14.3819 7.86529 14.838 7.38068 14.9573 6.76058Z" fill="white"/>
</g>
</g>
<defs>
<clipPath id="clip0_1059_26493">
<rect width="24" height="24" fill="white"/>
</clipPath>
<clipPath id="clip1_1059_26493">
<rect width="16" height="17" fill="white" transform="translate(4 4)"/>
</clipPath>
</defs>
</svg>
