<svg width="736" height="414" viewBox="0 0 736 414" fill="none" xmlns="http://www.w3.org/2000/svg">
<g clip-path="url(#clip0_1066_26883)">
<line x1="90.9043" y1="2.22417e-08" x2="90.9043" y2="415" stroke="black" stroke-opacity="0.08"/>
<line x1="154.775" y1="1" x2="154.775" y2="416" stroke="black" stroke-opacity="0.08"/>
<line x1="384.715" y1="2.22417e-08" x2="384.715" y2="415" stroke="black" stroke-opacity="0.08"/>
<line x1="623.496" y1="2.22417e-08" x2="623.496" y2="415" stroke="black" stroke-opacity="0.08"/>
<line x1="736" y1="70.5" x2="-5" y2="70.5" stroke="black" stroke-opacity="0.08"/>
<line x1="736" y1="297.5" x2="-1" y2="297.5" stroke="black" stroke-opacity="0.08"/>
<line x1="736" y1="362.5" y2="362.5" stroke="black" stroke-opacity="0.08"/>
<rect width="736" height="415" fill="url(#paint0_linear_1066_26883)"/>
<g clip-path="url(#clip1_1066_26883)">
<path d="M237 180L250 202H224L237 180Z" fill="black"/>
<rect x="224" y="142" width="119" height="60" rx="30" fill="black"/>
<path fill-rule="evenodd" clip-rule="evenodd" d="M282.236 156.101C282.042 156.156 281.801 156.309 281.7 156.439C281.567 156.611 281.516 161.358 281.516 173.553V190.429L281.998 190.713C282.646 191.096 283.354 191.096 284.002 190.713L284.484 190.429V173.553C284.484 161.392 284.433 156.611 284.301 156.44C283.99 156.038 283.016 155.878 282.236 156.101ZM276.13 161.575C275.843 161.649 275.527 161.797 275.43 161.905C275.179 162.182 275.179 184.804 275.43 185.08C275.528 185.188 275.858 185.338 276.164 185.413C276.804 185.571 277.3 185.495 277.807 185.164C278.132 184.951 278.137 184.793 278.18 173.621C278.228 161.082 278.283 161.762 277.192 161.537C276.914 161.48 276.679 161.435 276.67 161.437C276.661 161.439 276.418 161.501 276.13 161.575ZM288.852 161.525C288.671 161.569 288.374 161.702 288.193 161.821C287.868 162.034 287.863 162.192 287.82 173.364C287.772 185.889 287.718 185.223 288.797 185.445C289.397 185.569 290.295 185.384 290.57 185.08C290.821 184.803 290.821 162.182 290.57 161.905C290.43 161.75 289.45 161.41 289.229 161.439C289.203 161.443 289.034 161.481 288.852 161.525ZM256.991 162.957C256.875 162.985 256.671 163.132 256.537 163.285C256.327 163.525 256.293 164.922 256.293 173.515C256.293 182.703 256.315 183.484 256.572 183.706C256.963 184.043 257.115 184.09 257.826 184.091C258.294 184.092 258.555 184.028 258.857 183.835L259.261 183.578V173.474V163.369L258.856 163.131C258.465 162.9 257.579 162.818 256.991 162.957ZM313.43 163.191L313.004 163.49V173.478C313.004 182.7 313.025 183.484 313.283 183.706C313.673 184.043 313.825 184.09 314.536 184.091C314.983 184.092 315.277 184.025 315.566 183.854L315.971 183.615V173.492V163.369L315.566 163.131C314.955 162.77 313.992 162.798 313.43 163.191ZM250.456 165.914L250.029 166.213V173.507V180.801L250.511 181.085C251.115 181.442 251.812 181.46 252.451 181.135L252.914 180.9V173.492V166.085L252.451 165.85C251.778 165.508 250.999 165.533 250.456 165.914ZM269.392 165.854L268.987 166.093V173.493V180.893L269.424 181.131C270.163 181.535 271.307 181.413 271.68 180.89C271.823 180.688 271.851 178.761 271.79 173.303L271.707 165.987L271.318 165.801C270.763 165.536 269.89 165.56 269.392 165.854ZM294.682 165.801L294.293 165.987L294.21 173.303C294.149 178.761 294.177 180.688 294.32 180.89C294.695 181.415 295.909 181.543 296.608 181.131L297.013 180.892V173.511V166.13L296.608 165.872C296.116 165.559 295.256 165.527 294.682 165.801ZM307.221 165.899L306.739 166.184V173.492V180.801L307.221 181.085C307.825 181.442 308.522 181.46 309.162 181.135L309.624 180.9L309.668 173.544L309.713 166.187L309.228 165.901C308.577 165.517 307.87 165.516 307.221 165.899ZM320.069 167.124C319.829 167.201 319.551 167.403 319.45 167.572C319.325 167.784 319.268 169.654 319.268 173.531C319.269 178.718 319.292 179.209 319.557 179.516C320.031 180.067 321.178 180.155 321.901 179.697C322.23 179.489 322.236 179.378 322.236 173.515V167.545L321.754 167.261C321.226 166.949 320.737 166.91 320.069 167.124ZM244.648 168.435C243.755 168.647 243.764 168.594 243.764 173.522V178.078L244.246 178.362C244.511 178.519 244.886 178.647 245.079 178.647C245.685 178.647 246.358 178.374 246.549 178.052C246.792 177.64 246.801 169.51 246.558 168.995C246.313 168.474 245.493 168.233 244.648 168.435ZM263.361 168.481C263.122 168.56 262.878 168.699 262.819 168.79C262.76 168.881 262.715 171.007 262.72 173.513C262.726 176.894 262.78 178.119 262.927 178.259C263.243 178.557 263.94 178.687 264.554 178.56C265.547 178.356 265.514 178.53 265.52 173.485L265.525 168.858L265.147 168.648C264.648 168.372 263.903 168.302 263.361 168.481ZM300.982 168.59L300.475 168.842V173.484V178.127L300.846 178.331C301.56 178.724 302.506 178.696 303.066 178.266C303.217 178.15 303.268 176.977 303.272 173.525C303.275 171.002 303.231 168.867 303.175 168.78C303.053 168.592 302.27 168.338 301.814 168.338C301.635 168.338 301.261 168.451 300.982 168.59ZM238.489 169.766C238.353 169.797 238.075 169.911 237.871 170.021C237.5 170.22 237.5 170.222 237.5 173.492V176.765L237.898 176.986C238.451 177.292 239.344 177.296 239.886 176.996L240.303 176.765V173.492C240.303 170.224 240.302 170.22 239.932 170.016C239.525 169.792 238.876 169.68 238.489 169.766ZM326.687 169.768C326.551 169.798 326.272 169.911 326.068 170.021C325.698 170.22 325.697 170.224 325.697 173.455V176.691L326.089 176.959C326.589 177.303 327.508 177.315 328.102 176.986L328.5 176.765V173.484V170.203L327.993 169.951C327.496 169.705 327.184 169.661 326.687 169.768Z" fill="white"/>
</g>
<rect x="353" y="142" width="159" height="60" rx="30" fill="#7C3AED"/>
<path d="M496 180L509 202H483L496 180Z" fill="#7C3AED"/>
<path d="M379.62 160.028H382.7L389.504 179.348L391.24 179.628V181H383.848V179.628L386.172 179.348L384.856 175.204H376.68L375.364 179.348L377.772 179.628V181H371.136V179.628L372.872 179.348L379.62 160.028ZM381.384 164.508L380.684 162.044L380.012 164.564L377.184 173.552H384.324L381.384 164.508ZM394.723 161.932L392.119 161.596V160.196H400.351V161.596L397.747 161.932V179.348L400.351 179.656V181H392.147V179.628L394.723 179.348V161.932ZM416.104 160.028H419.184L425.988 179.348L427.724 179.628V181H420.332V179.628L422.656 179.348L421.34 175.204H413.164L411.848 179.348L414.256 179.628V181H407.62V179.628L409.356 179.348L416.104 160.028ZM417.868 164.508L417.168 162.044L416.496 164.564L413.668 173.552H420.808L417.868 164.508ZM435.043 188.56C432.654 188.56 430.918 188.177 429.835 187.412C428.771 186.665 428.239 185.629 428.239 184.304C428.239 183.483 428.491 182.727 428.995 182.036C429.518 181.345 430.134 180.823 430.843 180.468C429.984 179.983 429.555 179.199 429.555 178.116C429.555 177.444 429.751 176.809 430.143 176.212C430.535 175.615 431.048 175.157 431.683 174.84C430.75 174.429 430.031 173.841 429.527 173.076C429.042 172.311 428.799 171.405 428.799 170.36C428.799 169.277 429.098 168.335 429.695 167.532C430.311 166.729 431.114 166.113 432.103 165.684C433.111 165.255 434.175 165.04 435.295 165.04C437.18 165.04 438.655 165.432 439.719 166.216C439.999 165.936 440.428 165.665 441.007 165.404C441.586 165.143 442.202 165.012 442.855 165.012H443.807V167.476H440.727C441.175 168.167 441.399 168.969 441.399 169.884C441.399 170.985 441.119 171.965 440.559 172.824C440.018 173.664 439.252 174.317 438.263 174.784C437.292 175.251 436.191 175.484 434.959 175.484C434.156 175.484 433.438 175.4 432.803 175.232C432.542 175.493 432.327 175.783 432.159 176.1C431.991 176.417 431.907 176.725 431.907 177.024C431.907 177.696 432.131 178.163 432.579 178.424C433.027 178.667 433.83 178.788 434.987 178.788H438.151C439.962 178.788 441.306 179.133 442.183 179.824C443.06 180.515 443.499 181.495 443.499 182.764C443.499 183.828 443.116 184.799 442.351 185.676C441.586 186.572 440.55 187.272 439.243 187.776C437.955 188.299 436.555 188.56 435.043 188.56ZM435.239 173.944C437.367 173.944 438.431 172.684 438.431 170.164C438.431 168.913 438.151 167.999 437.591 167.42C437.05 166.823 436.228 166.524 435.127 166.524C434.1 166.524 433.288 166.813 432.691 167.392C432.094 167.952 431.795 168.857 431.795 170.108C431.795 171.284 432.075 172.217 432.635 172.908C433.214 173.599 434.082 173.944 435.239 173.944ZM435.295 186.936C436.21 186.936 437.068 186.796 437.871 186.516C438.692 186.255 439.355 185.853 439.859 185.312C440.363 184.789 440.615 184.173 440.615 183.464C440.615 182.624 440.391 182.008 439.943 181.616C439.495 181.243 438.627 181.056 437.339 181.056H434.035C433.288 181.056 432.7 181.009 432.271 180.916C431.506 181.756 431.123 182.699 431.123 183.744C431.123 184.789 431.44 185.583 432.075 186.124C432.71 186.665 433.783 186.936 435.295 186.936ZM451.967 181.308C449.708 181.308 447.981 180.571 446.787 179.096C445.611 177.621 445.023 175.652 445.023 173.188C445.023 171.564 445.331 170.136 445.947 168.904C446.563 167.672 447.421 166.72 448.523 166.048C449.643 165.376 450.912 165.04 452.331 165.04C454.067 165.04 455.411 165.525 456.363 166.496C457.333 167.448 457.847 168.82 457.903 170.612C457.903 171.751 457.837 172.619 457.707 173.216H448.075C448.112 175.064 448.541 176.557 449.363 177.696C450.184 178.816 451.351 179.376 452.863 179.376C453.609 179.376 454.384 179.245 455.187 178.984C456.008 178.704 456.643 178.377 457.091 178.004L457.623 179.236C457.081 179.796 456.279 180.281 455.215 180.692C454.151 181.103 453.068 181.308 451.967 181.308ZM454.823 171.732C454.879 171.34 454.907 170.939 454.907 170.528C454.888 169.315 454.627 168.363 454.123 167.672C453.637 166.963 452.863 166.608 451.799 166.608C450.716 166.608 449.848 167 449.195 167.784C448.56 168.568 448.196 169.884 448.103 171.732H454.823ZM461.709 167.616L459.693 167.112V165.6L463.697 165.096H463.781L464.369 165.6V166.776L464.341 167.448C465.013 166.851 465.9 166.309 467.001 165.824C468.103 165.339 469.157 165.096 470.165 165.096C471.341 165.096 472.247 165.32 472.881 165.768C473.535 166.216 473.992 166.907 474.253 167.84C474.515 168.755 474.645 169.996 474.645 171.564V179.404L476.605 179.6V181H469.969V179.628L471.705 179.404V171.536C471.705 170.435 471.631 169.576 471.481 168.96C471.332 168.325 471.052 167.859 470.641 167.56C470.231 167.243 469.633 167.084 468.849 167.084C468.177 167.084 467.459 167.252 466.693 167.588C465.928 167.924 465.247 168.316 464.649 168.764V179.376L466.553 179.628V181H459.945V179.628L461.709 179.376V167.616ZM483.131 181.28C482.067 181.28 481.274 181.037 480.751 180.552C480.228 180.067 479.967 179.236 479.967 178.06V167.308H477.951V166.048C478.044 166.029 478.306 165.964 478.735 165.852C479.164 165.74 479.454 165.637 479.603 165.544C479.902 165.376 480.135 165.04 480.303 164.536C480.452 164.181 480.63 163.612 480.835 162.828C481.04 162.044 481.162 161.577 481.199 161.428H482.851L482.907 165.46H487.583V167.308H482.907V175.904C482.907 176.968 482.935 177.715 482.991 178.144C483.066 178.573 483.206 178.853 483.411 178.984C483.635 179.115 484.008 179.18 484.531 179.18C485.035 179.18 485.586 179.115 486.183 178.984C486.799 178.853 487.275 178.713 487.611 178.564L488.031 179.824C487.583 180.16 486.855 180.487 485.847 180.804C484.858 181.121 483.952 181.28 483.131 181.28Z" fill="white"/>
<g filter="url(#filter0_d_1066_26883)">
<rect x="184" y="212" width="296" height="60" rx="30" fill="#F5F3FF"/>
<path d="M197 250L210 272H184L197 250Z" fill="#F5F3FF"/>
<path d="M212.865 232.294L210.357 231.91V230.081H219.797V231.91L217.201 232.294V249.935L219.797 250.259V252H210.357V250.23L212.865 249.935V232.294ZM224.108 238.4L222.22 237.869V235.834L227.117 235.214H227.205L227.943 235.804V236.955L227.913 237.663C228.602 237.014 229.497 236.453 230.598 235.981C231.699 235.509 232.81 235.273 233.931 235.273C235.131 235.273 236.065 235.5 236.734 235.952C237.422 236.385 237.914 237.073 238.209 238.017C238.504 238.961 238.651 240.239 238.651 241.852V249.994L240.451 250.23V252H232.84V250.23L234.433 249.994V241.852C234.433 240.829 234.364 240.033 234.226 239.462C234.089 238.872 233.833 238.45 233.459 238.194C233.105 237.919 232.594 237.781 231.925 237.781C230.804 237.781 229.605 238.263 228.326 239.226V249.964L230.096 250.23V252H222.397V250.23L224.108 249.964V238.4ZM247.492 252.266C246.253 252.266 245.338 251.98 244.748 251.41C244.158 250.84 243.863 249.935 243.863 248.696V237.869H241.946V236.335C242.103 236.276 242.388 236.178 242.801 236.04C243.214 235.883 243.529 235.755 243.745 235.657C244.079 235.401 244.365 234.959 244.601 234.329C244.778 233.916 245.102 232.894 245.574 231.261H247.934L248.052 235.598H252.566V237.869H248.082V246.159C248.082 247.26 248.111 248.037 248.17 248.489C248.229 248.942 248.357 249.237 248.554 249.374C248.75 249.492 249.094 249.551 249.586 249.551C250.078 249.551 250.589 249.502 251.12 249.404C251.651 249.286 252.094 249.148 252.448 248.991L253.008 250.643C252.457 251.056 251.651 251.43 250.589 251.764C249.527 252.098 248.495 252.266 247.492 252.266ZM262.012 252.325C259.416 252.325 257.478 251.567 256.2 250.053C254.941 248.519 254.312 246.434 254.312 243.799C254.312 242.029 254.637 240.495 255.286 239.197C255.954 237.899 256.888 236.906 258.088 236.217C259.288 235.529 260.674 235.185 262.248 235.185C264.214 235.185 265.729 235.706 266.791 236.748C267.853 237.771 268.403 239.236 268.443 241.144C268.443 242.442 268.364 243.406 268.207 244.035H258.619C258.698 245.825 259.121 247.221 259.888 248.224C260.655 249.207 261.746 249.699 263.162 249.699C263.929 249.699 264.716 249.571 265.522 249.315C266.348 249.06 266.997 248.755 267.469 248.401L268.207 250.023C267.676 250.594 266.81 251.125 265.611 251.616C264.431 252.089 263.231 252.325 262.012 252.325ZM264.313 242.265C264.352 241.714 264.372 241.291 264.372 240.996C264.372 238.381 263.496 237.073 261.746 237.073C260.782 237.073 260.035 237.456 259.504 238.223C258.973 238.99 258.678 240.338 258.619 242.265H264.313ZM270.797 250.259L272.744 250.023V238.4L270.856 237.869V235.834L275.428 235.214H275.517L276.254 235.804V236.453L276.166 238.843H276.254C276.392 238.45 276.716 237.968 277.228 237.397C277.739 236.807 278.378 236.296 279.145 235.863C279.932 235.411 280.778 235.185 281.682 235.185C282.115 235.185 282.489 235.244 282.803 235.362V239.787C282.213 239.374 281.495 239.167 280.65 239.167C279.214 239.167 277.965 239.551 276.903 240.318V249.994L280.325 250.259V252H270.797V250.259ZM284.358 247.398C284.358 245.608 285.253 244.261 287.042 243.356C288.852 242.452 291.182 241.99 294.034 241.97V241.291C294.034 240.485 293.945 239.856 293.768 239.403C293.611 238.951 293.306 238.617 292.854 238.4C292.421 238.164 291.782 238.046 290.936 238.046C289.973 238.046 289.107 238.174 288.34 238.43C287.573 238.666 286.777 238.981 285.951 239.374L285.036 237.486C285.331 237.23 285.823 236.926 286.511 236.571C287.219 236.217 288.055 235.913 289.019 235.657C289.983 235.382 290.976 235.244 291.998 235.244C293.513 235.244 294.693 235.441 295.538 235.834C296.404 236.227 297.023 236.857 297.397 237.722C297.771 238.587 297.957 239.748 297.957 241.203V250.23H299.55V251.882C299.157 251.98 298.597 252.079 297.869 252.177C297.141 252.275 296.502 252.325 295.951 252.325C295.283 252.325 294.83 252.226 294.594 252.03C294.378 251.833 294.27 251.43 294.27 250.82V250.023C293.739 250.613 293.051 251.144 292.205 251.616C291.359 252.089 290.405 252.325 289.343 252.325C288.439 252.325 287.603 252.138 286.836 251.764C286.089 251.371 285.489 250.81 285.036 250.082C284.584 249.335 284.358 248.44 284.358 247.398ZM291.231 249.876C291.644 249.876 292.116 249.758 292.647 249.522C293.178 249.266 293.641 248.961 294.034 248.607V243.769C292.264 243.769 290.936 244.074 290.051 244.684C289.186 245.274 288.753 246.041 288.753 246.985C288.753 247.929 288.97 248.647 289.402 249.138C289.855 249.63 290.464 249.876 291.231 249.876ZM301.008 243.887C301.008 242.196 301.342 240.692 302.011 239.374C302.699 238.056 303.673 237.034 304.931 236.306C306.21 235.559 307.695 235.185 309.386 235.185C310.173 235.185 310.851 235.244 311.421 235.362C311.992 235.48 312.631 235.637 313.339 235.834L314.194 236.07L314.017 241.114H311.451L310.713 237.869C310.595 237.358 310.015 237.103 308.973 237.103C307.872 237.103 307.006 237.584 306.377 238.548C305.767 239.512 305.453 241.016 305.433 243.061C305.433 245.225 305.807 246.887 306.554 248.047C307.301 249.188 308.294 249.758 309.533 249.758C311.028 249.758 312.405 249.355 313.663 248.548L314.342 250.082C313.831 250.633 313.044 251.144 311.982 251.616C310.94 252.089 309.809 252.325 308.589 252.325C306.072 252.325 304.174 251.548 302.896 249.994C301.637 248.44 301.008 246.405 301.008 243.887ZM321.645 252.266C320.406 252.266 319.491 251.98 318.901 251.41C318.311 250.84 318.016 249.935 318.016 248.696V237.869H316.099V236.335C316.256 236.276 316.541 236.178 316.954 236.04C317.367 235.883 317.682 235.755 317.898 235.657C318.233 235.401 318.518 234.959 318.754 234.329C318.931 233.916 319.255 232.894 319.727 231.261H322.087L322.205 235.598H326.719V237.869H322.235V246.159C322.235 247.26 322.264 248.037 322.323 248.489C322.382 248.942 322.51 249.237 322.707 249.374C322.903 249.492 323.248 249.551 323.739 249.551C324.231 249.551 324.742 249.502 325.273 249.404C325.804 249.286 326.247 249.148 326.601 248.991L327.161 250.643C326.611 251.056 325.804 251.43 324.742 251.764C323.68 252.098 322.648 252.266 321.645 252.266ZM332.241 232.913C331.533 232.913 330.973 232.707 330.56 232.294C330.147 231.881 329.94 231.35 329.94 230.701C329.94 229.954 330.176 229.334 330.648 228.842C331.12 228.351 331.75 228.105 332.536 228.105C333.323 228.105 333.923 228.321 334.336 228.754C334.749 229.167 334.955 229.688 334.955 230.317C334.955 231.104 334.719 231.733 334.247 232.205C333.775 232.677 333.116 232.913 332.271 232.913H332.241ZM330.678 238.4L328.583 237.84V235.863L333.982 235.214H334.041L334.867 235.804V249.994L336.843 250.23V252H328.613V250.23L330.678 249.964V238.4ZM337.453 235.598H345.241V237.309L343.294 237.692L345.979 245.716L346.923 248.843L347.719 245.805L350.345 237.692L348.486 237.309V235.598H354.976V237.309L353.442 237.692L347.955 252.236H344.533L338.663 237.692L337.453 237.309V235.598ZM363.245 252.325C360.649 252.325 358.712 251.567 357.433 250.053C356.175 248.519 355.545 246.434 355.545 243.799C355.545 242.029 355.87 240.495 356.519 239.197C357.188 237.899 358.122 236.906 359.321 236.217C360.521 235.529 361.908 235.185 363.481 235.185C365.448 235.185 366.962 235.706 368.024 236.748C369.086 237.771 369.637 239.236 369.676 241.144C369.676 242.442 369.597 243.406 369.44 244.035H359.852C359.931 245.825 360.354 247.221 361.121 248.224C361.888 249.207 362.979 249.699 364.395 249.699C365.162 249.699 365.949 249.571 366.755 249.315C367.581 249.06 368.23 248.755 368.702 248.401L369.44 250.023C368.909 250.594 368.044 251.125 366.844 251.616C365.664 252.089 364.464 252.325 363.245 252.325ZM365.546 242.265C365.585 241.714 365.605 241.291 365.605 240.996C365.605 238.381 364.73 237.073 362.979 237.073C362.016 237.073 361.268 237.456 360.737 238.223C360.206 238.99 359.911 240.338 359.852 242.265H365.546ZM377.526 235.598H385.314V237.309L383.367 237.692L386.052 245.716L386.996 248.843L387.792 245.805L390.418 237.692L388.559 237.309V235.598H395.049V237.309L393.515 237.692L388.028 252.236H384.606L378.736 237.692L377.526 237.309V235.598ZM395.884 243.828C395.884 241.98 396.247 240.406 396.975 239.108C397.722 237.81 398.716 236.837 399.955 236.188C401.194 235.519 402.541 235.185 403.996 235.185C406.474 235.185 408.382 235.952 409.719 237.486C411.076 239 411.755 241.065 411.755 243.681C411.755 245.549 411.381 247.142 410.634 248.46C409.906 249.758 408.923 250.731 407.684 251.38C406.464 252.01 405.117 252.325 403.642 252.325C401.184 252.325 399.276 251.567 397.919 250.053C396.562 248.519 395.884 246.444 395.884 243.828ZM403.878 250.407C406.1 250.407 407.212 248.263 407.212 243.976C407.212 241.734 406.946 240.033 406.415 238.872C405.884 237.692 405.019 237.103 403.819 237.103C401.538 237.103 400.397 239.246 400.397 243.533C400.397 245.775 400.672 247.486 401.223 248.666C401.793 249.827 402.678 250.407 403.878 250.407ZM417.947 232.913C417.239 232.913 416.678 232.707 416.265 232.294C415.852 231.881 415.646 231.35 415.646 230.701C415.646 229.954 415.882 229.334 416.354 228.842C416.826 228.351 417.455 228.105 418.242 228.105C419.029 228.105 419.628 228.321 420.041 228.754C420.454 229.167 420.661 229.688 420.661 230.317C420.661 231.104 420.425 231.733 419.953 232.205C419.481 232.677 418.822 232.913 417.976 232.913H417.947ZM416.383 238.4L414.289 237.84V235.863L419.687 235.214H419.746L420.572 235.804V249.994L422.549 250.23V252H414.318V250.23L416.383 249.964V238.4ZM424.28 243.887C424.28 242.196 424.614 240.692 425.283 239.374C425.971 238.056 426.945 237.034 428.203 236.306C429.482 235.559 430.967 235.185 432.658 235.185C433.445 235.185 434.123 235.244 434.693 235.362C435.264 235.48 435.903 235.637 436.611 235.834L437.466 236.07L437.289 241.114H434.723L433.985 237.869C433.867 237.358 433.287 237.103 432.245 237.103C431.144 237.103 430.278 237.584 429.649 238.548C429.039 239.512 428.725 241.016 428.705 243.061C428.705 245.225 429.079 246.887 429.826 248.047C430.573 249.188 431.566 249.758 432.805 249.758C434.3 249.758 435.677 249.355 436.935 248.548L437.614 250.082C437.103 250.633 436.316 251.144 435.254 251.616C434.212 252.089 433.081 252.325 431.861 252.325C429.344 252.325 427.446 251.548 426.168 249.994C424.909 248.44 424.28 246.405 424.28 243.887ZM447.395 252.325C444.799 252.325 442.862 251.567 441.583 250.053C440.325 248.519 439.695 246.434 439.695 243.799C439.695 242.029 440.02 240.495 440.669 239.197C441.337 237.899 442.272 236.906 443.471 236.217C444.671 235.529 446.057 235.185 447.631 235.185C449.597 235.185 451.112 235.706 452.174 236.748C453.236 237.771 453.786 239.236 453.826 241.144C453.826 242.442 453.747 243.406 453.59 244.035H444.002C444.081 245.825 444.504 247.221 445.271 248.224C446.038 249.207 447.129 249.699 448.545 249.699C449.312 249.699 450.099 249.571 450.905 249.315C451.731 249.06 452.38 248.755 452.852 248.401L453.59 250.023C453.059 250.594 452.193 251.125 450.994 251.616C449.814 252.089 448.614 252.325 447.395 252.325ZM449.696 242.265C449.735 241.714 449.755 241.291 449.755 240.996C449.755 238.381 448.88 237.073 447.129 237.073C446.166 237.073 445.418 237.456 444.887 238.223C444.356 238.99 444.061 240.338 444.002 242.265H449.696Z" fill="black"/>
</g>
<rect x="490" y="212" width="62" height="60" rx="30" fill="black"/>
<path d="M536 250L549 272H523L536 250Z" fill="black"/>
<circle cx="508.5" cy="243.5" r="3.5" fill="white"/>
<circle cx="520.5" cy="243.5" r="3.5" fill="white"/>
<circle cx="532.5" cy="243.5" r="3.5" fill="white"/>
</g>
<defs>
<filter id="filter0_d_1066_26883" x="183" y="211" width="298" height="62" filterUnits="userSpaceOnUse" color-interpolation-filters="sRGB">
<feFlood flood-opacity="0" result="BackgroundImageFix"/>
<feColorMatrix in="SourceAlpha" type="matrix" values="0 0 0 0 0 0 0 0 0 0 0 0 0 0 0 0 0 0 127 0" result="hardAlpha"/>
<feOffset/>
<feGaussianBlur stdDeviation="0.5"/>
<feColorMatrix type="matrix" values="0 0 0 0 0.654902 0 0 0 0 0.545098 0 0 0 0 0.980392 0 0 0 1 0"/>
<feBlend mode="normal" in2="BackgroundImageFix" result="effect1_dropShadow_1066_26883"/>
<feBlend mode="normal" in="SourceGraphic" in2="effect1_dropShadow_1066_26883" result="shape"/>
</filter>
<linearGradient id="paint0_linear_1066_26883" x1="27" y1="14" x2="736" y2="407" gradientUnits="userSpaceOnUse">
<stop offset="0.04" stop-color="white" stop-opacity="0.8"/>
<stop offset="0.415" stop-color="white" stop-opacity="0"/>
<stop offset="0.9" stop-color="white" stop-opacity="0.6"/>
</linearGradient>
<clipPath id="clip0_1066_26883">
<rect width="736" height="414" fill="white"/>
</clipPath>
<clipPath id="clip1_1066_26883">
<rect width="119" height="60" fill="white" transform="translate(224 142)"/>
</clipPath>
</defs>
</svg>
