<svg width="143" height="28" viewBox="0 0 143 28" fill="none" xmlns="http://www.w3.org/2000/svg">
<g clip-path="url(#clip0_1059_26505)" filter="url(#filter0_i_1059_26505)">
<rect y="7.25" width="4.05" height="13.5" rx="2.025" fill="#F1F5F9"/>
<rect x="22.9502" y="9.95" width="4.05" height="8.1" rx="2.025" fill="#F1F5F9"/>
<path fill-rule="evenodd" clip-rule="evenodd" d="M20.25 12.4799C19.8185 12.5909 19.3661 12.65 18.8999 12.65C15.9176 12.65 13.4999 10.2323 13.4999 7.25C13.4999 5.73919 14.1203 4.3733 15.1203 3.39321C14.6013 3.26697 14.0585 3.2 13.5 3.2C9.77208 3.2 6.75 6.18308 6.75 9.8629V18.1371C6.75 21.8169 9.77208 24.8 13.5 24.8C17.2279 24.8 20.25 21.8169 20.25 18.1371V12.4799Z" fill="#F1F5F9"/>
<path d="M18.4905 4.88444C18.5816 4.43852 19.2188 4.43852 19.3099 4.88444C19.5112 5.86932 20.2809 6.63898 21.2658 6.84028C21.7117 6.93143 21.7117 7.56857 21.2658 7.65972C20.2809 7.86102 19.5112 8.63068 19.3099 9.61556C19.2188 10.0615 18.5816 10.0615 18.4905 9.61556C18.2892 8.63068 17.5195 7.86102 16.5346 7.65972C16.0887 7.56857 16.0887 6.93143 16.5346 6.84028C17.5195 6.63898 18.2892 5.86932 18.4905 4.88444Z" fill="#F1F5F9"/>
</g>
<path d="M140.817 7.9925C139.872 7.9925 139.062 7.2095 139.062 6.2375C139.062 5.2655 139.872 4.4825 140.817 4.4825C141.789 4.4825 142.573 5.2655 142.573 6.2375C142.573 7.2095 141.789 7.9925 140.817 7.9925ZM139.413 23.1935V10.1525H142.249V23.1935H139.413Z" fill="#F1F5F9"/>
<path d="M132.902 23.1935V21.7895C131.93 22.8965 130.418 23.5175 128.69 23.5175C126.557 23.5175 124.154 22.0865 124.154 19.1975C124.154 16.2005 126.557 14.9585 128.69 14.9585C130.445 14.9585 131.957 15.5255 132.902 16.6325V14.6885C132.902 13.1765 131.66 12.2585 129.851 12.2585C128.393 12.2585 127.124 12.7985 125.99 13.9055L124.829 11.9345C126.341 10.5035 128.231 9.8285 130.31 9.8285C133.199 9.8285 135.737 11.0435 135.737 14.5535V23.1935H132.902ZM132.902 20.2235V18.2525C132.254 17.3615 131.039 16.9025 129.797 16.9025C128.204 16.9025 127.016 17.8205 127.016 19.2515C127.016 20.6555 128.204 21.5735 129.797 21.5735C131.039 21.5735 132.254 21.1145 132.902 20.2235Z" fill="#F1F5F9"/>
<path d="M117.888 21.6005C117.888 20.5745 118.752 19.7105 119.778 19.7105C120.804 19.7105 121.668 20.5745 121.668 21.6005C121.668 22.6265 120.804 23.4905 119.778 23.4905C118.752 23.4905 117.888 22.6265 117.888 21.6005Z" fill="#F1F5F9"/>
<path d="M108.86 23.5175C104.729 23.5175 102.164 20.4125 102.164 16.6595C102.164 12.9335 104.729 9.8285 108.86 9.8285C113.045 9.8285 115.583 12.9335 115.583 16.6595C115.583 20.4125 113.045 23.5175 108.86 23.5175ZM108.86 21.0065C111.29 21.0065 112.64 18.9815 112.64 16.6595C112.64 14.3645 111.29 12.3395 108.86 12.3395C106.457 12.3395 105.107 14.3645 105.107 16.6595C105.107 18.9815 106.457 21.0065 108.86 21.0065Z" fill="#F1F5F9"/>
<path d="M92.8239 23.1935L87.5049 10.1525H90.5289L94.3359 19.9265L98.1429 10.1525H101.194L95.8749 23.1935H92.8239Z" fill="#F1F5F9"/>
<path d="M80.0342 23.1935V10.1525H82.8692V12.0695C83.8412 10.8275 85.4072 9.8555 87.1082 9.8555V12.6635C86.8652 12.6095 86.5682 12.5825 86.2172 12.5825C85.0292 12.5825 83.4362 13.3925 82.8692 14.3105V23.1935H80.0342Z" fill="#F1F5F9"/>
<path d="M64.1953 16.6595C64.1953 12.8795 66.9493 9.8285 70.8103 9.8285C74.7253 9.8285 77.2363 12.8255 77.2363 16.9295V17.6045H67.1653C67.3813 19.5755 68.8663 21.1955 71.3233 21.1955C72.5923 21.1955 74.1043 20.6825 75.0223 19.7645L76.3183 21.6275C75.0223 22.8695 73.1053 23.5175 71.0263 23.5175C67.1113 23.5175 64.1953 20.7905 64.1953 16.6595ZM70.8103 12.1505C68.3803 12.1505 67.2733 14.0135 67.1383 15.6065H74.4823C74.4283 14.0675 73.3753 12.1505 70.8103 12.1505Z" fill="#F1F5F9"/>
<path d="M60.298 23.5175C58.111 23.5175 56.95 22.3295 56.95 20.1695V12.6365H54.79V10.1525H56.95V6.5885H59.785V10.1525H62.431V12.6365H59.785V19.4675C59.785 20.3585 60.217 21.0065 61.027 21.0065C61.567 21.0065 62.08 20.7905 62.296 20.5475L62.971 22.6805C62.458 23.1665 61.621 23.5175 60.298 23.5175Z" fill="#F1F5F9"/>
<path d="M49.8655 23.1935V15.0395C49.8655 13.0145 48.8395 12.3395 47.2465 12.3395C45.7885 12.3395 44.5465 13.2035 43.8985 14.0945V23.1935H41.0635V10.1525H43.8985V11.9345C44.7625 10.9085 46.4365 9.8285 48.4885 9.8285C51.2965 9.8285 52.7005 11.3405 52.7005 14.0135V23.1935H49.8655Z" fill="#F1F5F9"/>
<path d="M35.9552 7.9925C35.0102 7.9925 34.2002 7.2095 34.2002 6.2375C34.2002 5.2655 35.0102 4.4825 35.9552 4.4825C36.9272 4.4825 37.7102 5.2655 37.7102 6.2375C37.7102 7.2095 36.9272 7.9925 35.9552 7.9925ZM34.5512 23.1935V10.1525H37.3862V23.1935H34.5512Z" fill="#F1F5F9"/>
<defs>
<filter id="filter0_i_1059_26505" x="0" y="0.5" width="27" height="27.45" filterUnits="userSpaceOnUse" color-interpolation-filters="sRGB">
<feFlood flood-opacity="0" result="BackgroundImageFix"/>
<feBlend mode="normal" in="SourceGraphic" in2="BackgroundImageFix" result="shape"/>
<feColorMatrix in="SourceAlpha" type="matrix" values="0 0 0 0 0 0 0 0 0 0 0 0 0 0 0 0 0 0 127 0" result="hardAlpha"/>
<feOffset dy="0.45"/>
<feGaussianBlur stdDeviation="0.9"/>
<feComposite in2="hardAlpha" operator="arithmetic" k2="-1" k3="1"/>
<feColorMatrix type="matrix" values="0 0 0 0 0 0 0 0 0 0 0 0 0 0 0 0 0 0 0.3 0"/>
<feBlend mode="normal" in2="shape" result="effect1_innerShadow_1059_26505"/>
</filter>
<clipPath id="clip0_1059_26505">
<rect width="27" height="27" fill="white" transform="translate(0 0.5)"/>
</clipPath>
</defs>
</svg>
