<svg width="489" height="115" viewBox="0 0 489 115" fill="none" xmlns="http://www.w3.org/2000/svg">
<rect x="3.18115" y="6.3623" width="101.792" height="101.792" rx="25.4483" fill="#EBEBEB"/>
<rect x="24.9951" y="42.7173" width="8.72506" height="29.0835" rx="4.36253" fill="url(#paint0_linear_2097_14611)"/>
<rect x="24.9951" y="42.7173" width="8.72506" height="29.0835" rx="4.36253" fill="url(#paint1_linear_2097_14611)"/>
<rect x="74.4375" y="48.5352" width="8.72506" height="17.4501" rx="4.36253" fill="url(#paint2_linear_2097_14611)"/>
<rect x="74.4375" y="48.5352" width="8.72506" height="17.4501" rx="4.36253" fill="url(#paint3_linear_2097_14611)"/>
<path d="M54.0786 33.9917C55.2822 33.9917 56.4513 34.1375 57.5698 34.4097C55.4155 36.521 54.0777 39.4626 54.0776 42.7173C54.0776 49.1422 59.2865 54.3511 65.7114 54.3511C66.716 54.3511 67.6908 54.2233 68.6206 53.9839V66.1714C68.6206 74.0988 62.1096 80.5257 54.0786 80.5259C46.0476 80.5257 39.5376 74.0989 39.5376 66.1714V48.3462C39.5377 40.4188 46.0476 33.9919 54.0786 33.9917Z" fill="url(#paint4_linear_2097_14611)"/>
<path d="M54.0786 33.9917C55.2822 33.9917 56.4513 34.1375 57.5698 34.4097C55.4155 36.521 54.0777 39.4626 54.0776 42.7173C54.0776 49.1422 59.2865 54.3511 65.7114 54.3511C66.716 54.3511 67.6908 54.2233 68.6206 53.9839V66.1714C68.6206 74.0988 62.1096 80.5257 54.0786 80.5259C46.0476 80.5257 39.5376 74.0989 39.5376 66.1714V48.3462C39.5377 40.4188 46.0476 33.9919 54.0786 33.9917Z" fill="url(#paint5_linear_2097_14611)"/>
<path d="M64.8286 37.6214C65.0249 36.6607 66.3975 36.6607 66.5939 37.6214C67.0276 39.7431 68.6857 41.4013 70.8074 41.8349C71.7681 42.0313 71.7681 43.4039 70.8074 43.6002C68.6857 44.0339 67.0276 45.692 66.5939 47.8138C66.3975 48.7745 65.0249 48.7745 64.8286 47.8138C64.3949 45.692 62.7368 44.0339 60.615 43.6002C59.6544 43.4039 59.6544 42.0313 60.615 41.8349C62.7368 41.4013 64.3949 39.7431 64.8286 37.6214Z" fill="url(#paint6_linear_2097_14611)"/>
<path d="M64.8286 37.6214C65.0249 36.6607 66.3975 36.6607 66.5939 37.6214C67.0276 39.7431 68.6857 41.4013 70.8074 41.8349C71.7681 42.0313 71.7681 43.4039 70.8074 43.6002C68.6857 44.0339 67.0276 45.692 66.5939 47.8138C66.3975 48.7745 65.0249 48.7745 64.8286 47.8138C64.3949 45.692 62.7368 44.0339 60.615 43.6002C59.6544 43.4039 59.6544 42.0313 60.615 41.8349C62.7368 41.4013 64.3949 39.7431 64.8286 37.6214Z" fill="url(#paint7_linear_2097_14611)"/>
<path d="M475.888 88.9387V43.666H484.7V88.9387H475.888ZM480.338 36.6806C478.806 36.6806 477.489 36.1697 476.389 35.1479C475.308 34.1065 474.768 32.8685 474.768 31.4341C474.768 29.9801 475.308 28.7421 476.389 27.7203C477.489 26.6789 478.806 26.1582 480.338 26.1582C481.871 26.1582 483.178 26.6789 484.258 27.7203C485.359 28.7421 485.909 29.9801 485.909 31.4341C485.909 32.8685 485.359 34.1065 484.258 35.1479C483.178 36.1697 481.871 36.6806 480.338 36.6806Z" fill="#EBEBEB"/>
<path d="M443.468 89.941C440.599 89.941 438.006 89.4105 435.687 88.3494C433.368 87.2687 431.531 85.7065 430.175 83.663C428.839 81.6194 428.171 79.1141 428.171 76.147C428.171 73.5925 428.662 71.49 429.645 69.8394C430.627 68.1889 431.953 66.8822 433.624 65.9193C435.294 64.9565 437.161 64.2295 439.224 63.7382C441.287 63.247 443.39 62.8737 445.531 62.6182C448.243 62.3038 450.444 62.0484 452.134 61.8519C453.823 61.6357 455.052 61.2919 455.818 60.8203C456.584 60.3487 456.967 59.5823 456.967 58.5213V58.3149C456.967 55.7408 456.24 53.7464 454.786 52.3316C453.352 50.9169 451.21 50.2095 448.361 50.2095C445.394 50.2095 443.055 50.8677 441.346 52.1843C439.656 53.4811 438.487 54.9254 437.839 56.517L429.556 54.6306C430.539 51.8797 431.973 49.6593 433.859 47.9694C435.765 46.2599 437.956 45.022 440.432 44.2556C442.908 43.4697 445.512 43.0767 448.243 43.0767C450.051 43.0767 451.967 43.2928 453.99 43.7251C456.034 44.1377 457.94 44.9041 459.709 46.0241C461.497 47.1441 462.961 48.7456 464.1 50.8284C465.24 52.8916 465.81 55.5738 465.81 58.875V88.9389H457.203V82.7492H456.85C456.28 83.8889 455.425 85.009 454.285 86.1093C453.146 87.2097 451.682 88.1234 449.894 88.8505C448.105 89.5775 445.964 89.941 443.468 89.941ZM445.384 82.8671C447.82 82.8671 449.903 82.3857 451.633 81.4229C453.381 80.4601 454.708 79.2025 455.612 77.6502C456.535 76.0782 456.997 74.3982 456.997 72.61V66.7741C456.682 67.0885 456.073 67.3832 455.169 67.6583C454.285 67.9138 453.273 68.1398 452.134 68.3363C450.994 68.5131 449.884 68.6801 448.803 68.8373C447.722 68.9749 446.818 69.0928 446.091 69.191C444.382 69.4072 442.82 69.7707 441.405 70.2816C440.01 70.7925 438.89 71.5293 438.045 72.4921C437.22 73.4353 436.807 74.6929 436.807 76.2649C436.807 78.446 437.613 80.0966 439.224 81.2166C440.835 82.317 442.888 82.8671 445.384 82.8671Z" fill="#EBEBEB"/>
<path d="M414.253 89.4991C412.642 89.4991 411.257 88.9292 410.097 87.7896C408.938 86.6302 408.358 85.2351 408.358 83.6042C408.358 81.9929 408.938 80.6174 410.097 79.4778C411.257 78.3184 412.642 77.7388 414.253 77.7388C415.865 77.7388 417.25 78.3184 418.409 79.4778C419.569 80.6174 420.148 81.9929 420.148 83.6042C420.148 84.6849 419.873 85.6772 419.323 86.5811C418.792 87.4653 418.085 88.1727 417.201 88.7033C416.316 89.2338 415.334 89.4991 414.253 89.4991Z" fill="#EBEBEB"/>
<path d="M379.166 89.8526C374.922 89.8526 371.218 88.8799 368.054 86.9346C364.891 84.9893 362.435 82.2678 360.686 78.7702C358.937 75.2726 358.062 71.1854 358.062 66.5088C358.062 61.8126 358.937 57.7058 360.686 54.1885C362.435 50.6712 364.891 47.9399 368.054 45.9946C371.218 44.0493 374.922 43.0767 379.166 43.0767C383.411 43.0767 387.114 44.0493 390.278 45.9946C393.442 47.9399 395.898 50.6712 397.647 54.1885C399.395 57.7058 400.27 61.8126 400.27 66.5088C400.27 71.1854 399.395 75.2726 397.647 78.7702C395.898 82.2678 393.442 84.9893 390.278 86.9346C387.114 88.8799 383.411 89.8526 379.166 89.8526ZM379.196 82.4545C381.947 82.4545 384.226 81.7275 386.034 80.2734C387.842 78.8193 389.178 76.8838 390.042 74.4669C390.927 72.05 391.369 69.3875 391.369 66.4794C391.369 63.5909 390.927 60.9382 390.042 58.5213C389.178 56.0847 387.842 54.1296 386.034 52.6558C384.226 51.1821 381.947 50.4453 379.196 50.4453C376.425 50.4453 374.126 51.1821 372.299 52.6558C370.491 54.1296 369.145 56.0847 368.261 58.5213C367.396 60.9382 366.964 63.5909 366.964 66.4794C366.964 69.3875 367.396 72.05 368.261 74.4669C369.145 76.8838 370.491 78.8193 372.299 80.2734C374.126 81.7275 376.425 82.4545 379.196 82.4545Z" fill="#EBEBEB"/>
<path d="M355.014 43.666L338.597 88.9387H329.165L312.718 43.666H322.18L333.645 78.5048H334.117L345.553 43.666H355.014Z" fill="#EBEBEB"/>
<path d="M284.712 88.9389V43.6662H293.23V50.858H293.702C294.527 48.4214 295.981 46.5056 298.064 45.1104C300.166 43.6957 302.544 42.9883 305.197 42.9883C305.747 42.9883 306.395 43.0079 307.142 43.0472C307.908 43.0865 308.508 43.1357 308.94 43.1946V51.6243C308.586 51.526 307.957 51.418 307.054 51.3001C306.15 51.1625 305.246 51.0938 304.342 51.0938C302.259 51.0938 300.402 51.5359 298.771 52.4201C297.16 53.2847 295.883 54.4931 294.94 56.0455C293.996 57.5781 293.525 59.3269 293.525 61.2919V88.9389H284.712Z" fill="#EBEBEB"/>
<path d="M257.17 89.8526C252.71 89.8526 248.868 88.8996 245.646 86.9936C242.443 85.0679 239.967 82.3661 238.218 78.8881C236.489 75.3905 235.625 71.2935 235.625 66.5973C235.625 61.9599 236.489 57.8728 238.218 54.3359C239.967 50.799 242.404 48.0382 245.528 46.0536C248.672 44.069 252.346 43.0767 256.551 43.0767C259.106 43.0767 261.582 43.4991 263.979 44.3441C266.376 45.189 268.528 46.5153 270.434 48.3231C272.34 50.1309 273.843 52.479 274.943 55.3675C276.044 58.2363 276.594 61.7242 276.594 65.8309V68.9552H240.606V62.3529H267.958C267.958 60.0343 267.486 57.9809 266.543 56.1928C265.6 54.385 264.274 52.9604 262.564 51.919C260.874 50.8776 258.89 50.3568 256.61 50.3568C254.134 50.3568 251.973 50.966 250.126 52.1843C248.299 53.3829 246.884 54.9549 245.882 56.9002C244.899 58.8258 244.408 60.9185 244.408 63.1782V68.3363C244.408 71.3623 244.938 73.9364 246 76.0586C247.08 78.1807 248.583 79.8018 250.509 80.9218C252.435 82.0222 254.685 82.5724 257.259 82.5724C258.929 82.5724 260.452 82.3366 261.827 81.865C263.203 81.3738 264.392 80.6467 265.394 79.6839C266.396 78.7211 267.162 77.5323 267.693 76.1175L276.034 77.6207C275.366 80.0769 274.167 82.2285 272.438 84.0756C270.729 85.903 268.577 87.3276 265.983 88.3494C263.409 89.3515 260.471 89.8526 257.17 89.8526Z" fill="#EBEBEB"/>
<path d="M230.056 43.6664V50.7403H205.327V43.6664H230.056ZM211.958 32.8198H220.771V75.6462C220.771 77.3557 221.027 78.6427 221.538 79.5073C222.048 80.3523 222.707 80.9319 223.512 81.2463C224.338 81.5411 225.232 81.6884 226.195 81.6884C226.902 81.6884 227.521 81.6393 228.051 81.5411C228.582 81.4428 228.995 81.3642 229.289 81.3053L230.881 88.5855C230.37 88.7819 229.643 88.9784 228.7 89.1749C227.757 89.3911 226.578 89.509 225.163 89.5286C222.844 89.5679 220.683 89.1553 218.679 88.2907C216.674 87.4261 215.053 86.0899 213.815 84.2822C212.577 82.4744 211.958 80.2049 211.958 77.4736V32.8198Z" fill="#EBEBEB"/>
<path d="M169.79 62.0582V88.9389H160.977V43.6661H169.436V51.0348H169.996C171.038 48.6375 172.669 46.7118 174.889 45.2578C177.129 43.8037 179.949 43.0767 183.348 43.0767C186.433 43.0767 189.135 43.7251 191.454 45.022C193.772 46.2992 195.57 48.2052 196.847 50.74C198.125 53.2748 198.763 56.4089 198.763 60.1424V88.9389H189.95V61.2034C189.95 57.922 189.096 55.3577 187.386 53.5106C185.677 51.6439 183.328 50.7105 180.342 50.7105C178.298 50.7105 176.481 51.1527 174.889 52.0369C173.317 52.9211 172.069 54.218 171.146 55.9275C170.242 57.6174 169.79 59.6609 169.79 62.0582Z" fill="#EBEBEB"/>
<path d="M150.081 28.5752V88.9388H140.974V28.5752H150.081Z" fill="#EBEBEB"/>
<defs>
<linearGradient id="paint0_linear_2097_14611" x1="29.3576" y1="42.7173" x2="29.3576" y2="71.8008" gradientUnits="userSpaceOnUse">
<stop stop-color="#FEF6F4"/>
<stop offset="1" stop-color="#D0D0D0"/>
</linearGradient>
<linearGradient id="paint1_linear_2097_14611" x1="29.3576" y1="42.7173" x2="29.3576" y2="71.8008" gradientUnits="userSpaceOnUse">
<stop stop-color="#2E2E2E"/>
<stop offset="1"/>
</linearGradient>
<linearGradient id="paint2_linear_2097_14611" x1="78.8" y1="48.5352" x2="78.8" y2="65.9853" gradientUnits="userSpaceOnUse">
<stop stop-color="#FEF6F4"/>
<stop offset="1" stop-color="#D0D0D0"/>
</linearGradient>
<linearGradient id="paint3_linear_2097_14611" x1="78.8" y1="48.5352" x2="78.8" y2="65.9853" gradientUnits="userSpaceOnUse">
<stop stop-color="#2E2E2E"/>
<stop offset="1"/>
</linearGradient>
<linearGradient id="paint4_linear_2097_14611" x1="54.0791" y1="33.9917" x2="54.0791" y2="80.5259" gradientUnits="userSpaceOnUse">
<stop stop-color="#FEF6F4"/>
<stop offset="1" stop-color="#D0D0D0"/>
</linearGradient>
<linearGradient id="paint5_linear_2097_14611" x1="54.0791" y1="33.9917" x2="54.0791" y2="80.5259" gradientUnits="userSpaceOnUse">
<stop stop-color="#2E2E2E"/>
<stop offset="1"/>
</linearGradient>
<linearGradient id="paint6_linear_2097_14611" x1="65.7112" y1="36.9009" x2="65.7112" y2="48.5343" gradientUnits="userSpaceOnUse">
<stop stop-color="#FEF6F4"/>
<stop offset="1" stop-color="#D0D0D0"/>
</linearGradient>
<linearGradient id="paint7_linear_2097_14611" x1="65.7112" y1="36.9009" x2="65.7112" y2="48.5343" gradientUnits="userSpaceOnUse">
<stop stop-color="#2E2E2E"/>
<stop offset="1"/>
</linearGradient>
</defs>
</svg>
