<svg width="317" height="60" viewBox="0 0 317 60" fill="none" xmlns="http://www.w3.org/2000/svg">
<g filter="url(#filter0_i_1058_26378)">
<rect y="15" width="9" height="30" rx="4.5" fill="#0F172A"/>
<rect x="51" y="21" width="9" height="18" rx="4.5" fill="#0F172A"/>
<path fill-rule="evenodd" clip-rule="evenodd" d="M45 26.622C44.0412 26.8687 43.036 27 42.0001 27C35.3727 27 30.0001 21.6274 30.0001 15C30.0001 11.6427 31.3788 8.60738 33.601 6.42942C32.4474 6.14884 31.2413 6 30 6C21.7157 6 15 12.6291 15 20.8064V39.1935C15 47.3709 21.7157 54 30 54C38.2843 54 45 47.3709 45 39.1935V26.622Z" fill="#0F172A"/>
<path d="M41.0895 9.74321C41.2921 8.75226 42.7079 8.75226 42.9105 9.74321C43.3578 11.9318 45.0682 13.6422 47.2568 14.0895C48.2477 14.2921 48.2477 15.7079 47.2568 15.9105C45.0682 16.3578 43.3578 18.0682 42.9105 20.2568C42.7079 21.2477 41.2921 21.2477 41.0895 20.2568C40.6422 18.0682 38.9318 16.3578 36.7432 15.9105C35.7523 15.7079 35.7523 14.2921 36.7432 14.0895C38.9318 13.6422 40.6422 11.9318 41.0895 9.74321Z" fill="#0F172A"/>
</g>
<path d="M312.927 16.65C310.827 16.65 309.027 14.91 309.027 12.75C309.027 10.59 310.827 8.85 312.927 8.85C315.087 8.85 316.827 10.59 316.827 12.75C316.827 14.91 315.087 16.65 312.927 16.65ZM309.807 50.43V21.45H316.107V50.43H309.807Z" fill="#0F172A"/>
<path d="M295.339 50.43V47.31C293.179 49.77 289.819 51.15 285.979 51.15C281.239 51.15 275.899 47.97 275.899 41.55C275.899 34.89 281.239 32.13 285.979 32.13C289.879 32.13 293.239 33.39 295.339 35.85V31.53C295.339 28.17 292.579 26.13 288.559 26.13C285.319 26.13 282.499 27.33 279.979 29.79L277.399 25.41C280.759 22.23 284.959 20.73 289.579 20.73C295.999 20.73 301.639 23.43 301.639 31.23V50.43H295.339ZM295.339 43.83V39.45C293.899 37.47 291.199 36.45 288.439 36.45C284.899 36.45 282.259 38.49 282.259 41.67C282.259 44.79 284.899 46.83 288.439 46.83C291.199 46.83 293.899 45.81 295.339 43.83Z" fill="#0F172A"/>
<path d="M261.973 46.89C261.973 44.61 263.893 42.69 266.173 42.69C268.453 42.69 270.373 44.61 270.373 46.89C270.373 49.17 268.453 51.09 266.173 51.09C263.893 51.09 261.973 49.17 261.973 46.89Z" fill="#0F172A"/>
<path d="M241.911 51.15C232.731 51.15 227.031 44.25 227.031 35.91C227.031 27.63 232.731 20.73 241.911 20.73C251.211 20.73 256.851 27.63 256.851 35.91C256.851 44.25 251.211 51.15 241.911 51.15ZM241.911 45.57C247.311 45.57 250.311 41.07 250.311 35.91C250.311 30.81 247.311 26.31 241.911 26.31C236.571 26.31 233.571 30.81 233.571 35.91C233.571 41.07 236.571 45.57 241.911 45.57Z" fill="#0F172A"/>
<path d="M206.275 50.43L194.455 21.45H201.175L209.635 43.17L218.095 21.45H224.875L213.055 50.43H206.275Z" fill="#0F172A"/>
<path d="M177.854 50.43V21.45H184.154V25.71C186.314 22.95 189.794 20.79 193.574 20.79V27.03C193.034 26.91 192.374 26.85 191.594 26.85C188.954 26.85 185.414 28.65 184.154 30.69V50.43H177.854Z" fill="#0F172A"/>
<path d="M142.656 35.91C142.656 27.51 148.776 20.73 157.356 20.73C166.056 20.73 171.636 27.39 171.636 36.51V38.01H149.256C149.736 42.39 153.036 45.99 158.496 45.99C161.316 45.99 164.676 44.85 166.716 42.81L169.596 46.95C166.716 49.71 162.456 51.15 157.836 51.15C149.136 51.15 142.656 45.09 142.656 35.91ZM157.356 25.89C151.956 25.89 149.496 30.03 149.196 33.57H165.516C165.396 30.15 163.056 25.89 157.356 25.89Z" fill="#0F172A"/>
<path d="M133.996 51.15C129.136 51.15 126.556 48.51 126.556 43.71V26.97H121.756V21.45H126.556V13.53H132.856V21.45H138.736V26.97H132.856V42.15C132.856 44.13 133.816 45.57 135.616 45.57C136.816 45.57 137.956 45.09 138.436 44.55L139.936 49.29C138.796 50.37 136.936 51.15 133.996 51.15Z" fill="#0F172A"/>
<path d="M110.813 50.43V32.31C110.813 27.81 108.533 26.31 104.993 26.31C101.753 26.31 98.9929 28.23 97.5529 30.21V50.43H91.2529V21.45H97.5529V25.41C99.4729 23.13 103.193 20.73 107.753 20.73C113.993 20.73 117.113 24.09 117.113 30.03V50.43H110.813Z" fill="#0F172A"/>
<path d="M79.9 16.65C77.8 16.65 76 14.91 76 12.75C76 10.59 77.8 8.85 79.9 8.85C82.06 8.85 83.8 10.59 83.8 12.75C83.8 14.91 82.06 16.65 79.9 16.65ZM76.78 50.43V21.45H83.08V50.43H76.78Z" fill="#0F172A"/>
<defs>
<filter id="filter0_i_1058_26378" x="0" y="0" width="60" height="61" filterUnits="userSpaceOnUse" color-interpolation-filters="sRGB">
<feFlood flood-opacity="0" result="BackgroundImageFix"/>
<feBlend mode="normal" in="SourceGraphic" in2="BackgroundImageFix" result="shape"/>
<feColorMatrix in="SourceAlpha" type="matrix" values="0 0 0 0 0 0 0 0 0 0 0 0 0 0 0 0 0 0 127 0" result="hardAlpha"/>
<feOffset dy="1"/>
<feGaussianBlur stdDeviation="2"/>
<feComposite in2="hardAlpha" operator="arithmetic" k2="-1" k3="1"/>
<feColorMatrix type="matrix" values="0 0 0 0 0 0 0 0 0 0 0 0 0 0 0 0 0 0 0.3 0"/>
<feBlend mode="normal" in2="shape" result="effect1_innerShadow_1058_26378"/>
</filter>
</defs>
</svg>
