<svg width="116" height="36" viewBox="0 0 116 36" fill="none" xmlns="http://www.w3.org/2000/svg">
<rect x="1" y="2" width="32" height="32" rx="6.85714" fill="#EBEBEB"/>
<g filter="url(#filter0_dii_2097_14486)">
<rect x="1" y="2" width="32" height="32" rx="8" fill="#1A1A1A"/>
</g>
<g filter="url(#filter1_di_2097_14486)">
<rect x="7.85742" y="13.4287" width="2.74286" height="9.14286" rx="1.37143" fill="url(#paint0_linear_2097_14486)"/>
<rect x="23.4004" y="15.2573" width="2.74286" height="5.48571" rx="1.37143" fill="url(#paint1_linear_2097_14486)"/>
<path d="M17 10.6855C17.378 10.6856 17.7454 10.732 18.0967 10.8174C17.4199 11.4811 17 12.4059 17 13.4287C17.0001 15.4484 18.6375 17.0859 20.6572 17.0859C20.9728 17.0859 21.2791 17.0459 21.5713 16.9707V20.8018C21.5713 23.2938 19.5245 25.3142 17 25.3145C14.4755 25.3142 12.4277 23.2938 12.4277 20.8018V15.1982C12.4278 12.7063 14.4755 10.6858 17 10.6855Z" fill="url(#paint2_linear_2097_14486)"/>
<path d="M20.3797 11.8266C20.4414 11.5246 20.8729 11.5246 20.9347 11.8266C21.071 12.4936 21.5923 13.0149 22.2593 13.1512C22.5613 13.2129 22.5613 13.6444 22.2593 13.7061C21.5923 13.8425 21.071 14.3637 20.9347 15.0307C20.8729 15.3327 20.4414 15.3327 20.3797 15.0307C20.2434 14.3637 19.7221 13.8425 19.0551 13.7061C18.7531 13.6444 18.7531 13.2129 19.0551 13.1512C19.7221 13.0149 20.2434 12.4936 20.3797 11.8266Z" fill="url(#paint3_linear_2097_14486)"/>
</g>
<path d="M106.052 24.0046V15.2773H107.751V24.0046H106.052ZM106.91 13.9308C106.614 13.9308 106.361 13.8323 106.148 13.6353C105.94 13.4345 105.836 13.1959 105.836 12.9194C105.836 12.6391 105.94 12.4004 106.148 12.2035C106.361 12.0027 106.614 11.9023 106.91 11.9023C107.205 11.9023 107.457 12.0027 107.665 12.2035C107.878 12.4004 107.984 12.6391 107.984 12.9194C107.984 13.1959 107.878 13.4345 107.665 13.6353C107.457 13.8323 107.205 13.9308 106.91 13.9308Z" fill="#2E2E2E"/>
<path d="M99.6422 24.1977C99.0892 24.1977 98.5892 24.0954 98.1422 23.8908C97.6953 23.6825 97.3411 23.3814 97.0797 22.9874C96.8221 22.5935 96.6934 22.1105 96.6934 21.5386C96.6934 21.0462 96.7881 20.6408 96.9774 20.3227C97.1668 20.0045 97.4225 19.7526 97.7445 19.567C98.0665 19.3814 98.4263 19.2412 98.824 19.1465C99.2218 19.0518 99.6271 18.9799 100.04 18.9306C100.563 18.87 100.987 18.8208 101.313 18.7829C101.638 18.7412 101.875 18.6749 102.023 18.584C102.171 18.4931 102.244 18.3454 102.244 18.1408V18.1011C102.244 17.6049 102.104 17.2204 101.824 16.9477C101.548 16.6749 101.135 16.5386 100.585 16.5386C100.013 16.5386 99.5627 16.6655 99.2331 16.9193C98.9074 17.1693 98.682 17.4477 98.557 17.7545L96.9604 17.3908C97.1498 16.8605 97.4263 16.4325 97.7899 16.1068C98.1574 15.7772 98.5797 15.5386 99.057 15.3908C99.5343 15.2393 100.036 15.1636 100.563 15.1636C100.911 15.1636 101.28 15.2052 101.671 15.2886C102.065 15.3681 102.432 15.5158 102.773 15.7318C103.118 15.9477 103.4 16.2564 103.619 16.6579C103.839 17.0556 103.949 17.5727 103.949 18.209V24.0045H102.29V22.8113H102.222C102.112 23.031 101.947 23.2469 101.727 23.459C101.508 23.6711 101.226 23.8473 100.881 23.9874C100.536 24.1276 100.123 24.1977 99.6422 24.1977ZM100.012 22.834C100.481 22.834 100.883 22.7412 101.216 22.5556C101.553 22.37 101.809 22.1276 101.983 21.8283C102.161 21.5253 102.25 21.2015 102.25 20.8568V19.7318C102.19 19.7924 102.072 19.8492 101.898 19.9022C101.727 19.9515 101.532 19.995 101.313 20.0329C101.093 20.067 100.879 20.0992 100.671 20.1295C100.462 20.156 100.288 20.1787 100.148 20.1977C99.8184 20.2393 99.5172 20.3094 99.2445 20.4079C98.9756 20.5064 98.7596 20.6484 98.5968 20.834C98.4377 21.0158 98.3581 21.2583 98.3581 21.5613C98.3581 21.9818 98.5134 22.2999 98.824 22.5158C99.1346 22.728 99.5305 22.834 100.012 22.834Z" fill="#2E2E2E"/>
<path d="M93.8502 24.1123C93.5396 24.1123 93.2726 24.0024 93.0491 23.7827C92.8256 23.5592 92.7139 23.2903 92.7139 22.9759C92.7139 22.6653 92.8256 22.4001 93.0491 22.1804C93.2726 21.957 93.5396 21.8452 93.8502 21.8452C94.1608 21.8452 94.4279 21.957 94.6514 22.1804C94.8749 22.4001 94.9866 22.6653 94.9866 22.9759C94.9866 23.1842 94.9336 23.3755 94.8275 23.5498C94.7252 23.7202 94.5889 23.8566 94.4184 23.9589C94.248 24.0611 94.0586 24.1123 93.8502 24.1123Z" fill="#2E2E2E"/>
<path d="M86.9266 24.1806C86.1084 24.1806 85.3944 23.9931 84.7845 23.6181C84.1747 23.2431 83.7012 22.7185 83.3641 22.0443C83.027 21.37 82.8584 20.5821 82.8584 19.6806C82.8584 18.7753 83.027 17.9836 83.3641 17.3056C83.7012 16.6276 84.1747 16.1011 84.7845 15.7261C85.3944 15.3511 86.1084 15.1636 86.9266 15.1636C87.7448 15.1636 88.4588 15.3511 89.0686 15.7261C89.6785 16.1011 90.152 16.6276 90.4891 17.3056C90.8262 17.9836 90.9948 18.7753 90.9948 19.6806C90.9948 20.5821 90.8262 21.37 90.4891 22.0443C90.152 22.7185 89.6785 23.2431 89.0686 23.6181C88.4588 23.9931 87.7448 24.1806 86.9266 24.1806ZM86.9323 22.7545C87.4626 22.7545 87.902 22.6143 88.2504 22.334C88.5989 22.0537 88.8565 21.6806 89.0232 21.2147C89.1936 20.7488 89.2789 20.2355 89.2789 19.6749C89.2789 19.1181 89.1936 18.6068 89.0232 18.1408C88.8565 17.6712 88.5989 17.2943 88.2504 17.0102C87.902 16.7261 87.4626 16.584 86.9323 16.584C86.3982 16.584 85.955 16.7261 85.6027 17.0102C85.2542 17.2943 84.9948 17.6712 84.8243 18.1408C84.6576 18.6068 84.5743 19.1181 84.5743 19.6749C84.5743 20.2355 84.6576 20.7488 84.8243 21.2147C84.9948 21.6806 85.2542 22.0537 85.6027 22.334C85.955 22.6143 86.3982 22.7545 86.9323 22.7545Z" fill="#2E2E2E"/>
<path d="M82.1109 15.2773L78.9462 24.0046H77.128L73.9575 15.2773H75.7814L77.9916 21.9933H78.0825L80.2871 15.2773H82.1109Z" fill="#2E2E2E"/>
<path d="M68.3984 24.0044V15.2772H70.0405V16.6635H70.1314C70.2905 16.1938 70.5708 15.8245 70.9723 15.5556C71.3776 15.2828 71.8359 15.1465 72.3473 15.1465C72.4534 15.1465 72.5784 15.1503 72.7223 15.1578C72.87 15.1654 72.9856 15.1749 73.0689 15.1863V16.8113C73.0007 16.7923 72.8795 16.7715 72.7053 16.7488C72.531 16.7222 72.3568 16.709 72.1825 16.709C71.781 16.709 71.4231 16.7942 71.1087 16.9647C70.7981 17.1313 70.5518 17.3643 70.37 17.6635C70.1882 17.959 70.0973 18.2961 70.0973 18.6749V24.0044H68.3984Z" fill="#2E2E2E"/>
<path d="M62.9293 24.1806C62.0694 24.1806 61.3289 23.9969 60.7077 23.6295C60.0903 23.2583 59.613 22.7374 59.2759 22.067C58.9425 21.3927 58.7759 20.603 58.7759 19.6977C58.7759 18.8037 58.9425 18.0158 59.2759 17.334C59.613 16.6522 60.0827 16.12 60.685 15.7374C61.291 15.3549 61.9994 15.1636 62.81 15.1636C63.3024 15.1636 63.7797 15.245 64.2418 15.4079C64.7039 15.5708 65.1187 15.8265 65.4861 16.1749C65.8535 16.5234 66.1433 16.9761 66.3554 17.5329C66.5675 18.0859 66.6736 18.7583 66.6736 19.5499V20.1522H59.7361V18.8795H65.0088C65.0088 18.4325 64.9179 18.0367 64.7361 17.692C64.5543 17.3435 64.2986 17.0689 63.9691 16.8681C63.6433 16.6674 63.2607 16.567 62.8213 16.567C62.3441 16.567 61.9274 16.6844 61.5713 16.9193C61.2191 17.1503 60.9463 17.4533 60.7532 17.8283C60.5638 18.1996 60.4691 18.603 60.4691 19.0386V20.0329C60.4691 20.6162 60.5713 21.1124 60.7759 21.5215C60.9842 21.9306 61.274 22.2431 61.6452 22.459C62.0164 22.6711 62.4501 22.7772 62.9463 22.7772C63.2683 22.7772 63.5619 22.7318 63.827 22.6408C64.0922 22.5462 64.3213 22.406 64.5145 22.2204C64.7077 22.0348 64.8554 21.8056 64.9577 21.5329L66.5657 21.8227C66.4369 22.2962 66.2058 22.7109 65.8725 23.067C65.5429 23.4193 65.1282 23.6939 64.6282 23.8908C64.1319 24.084 63.5657 24.1806 62.9293 24.1806Z" fill="#2E2E2E"/>
<path d="M57.5424 15.2769V16.6406H52.7754V15.2769H57.5424ZM54.0538 13.186H55.7527V21.4417C55.7527 21.7713 55.8019 22.0194 55.9004 22.186C55.9989 22.3489 56.1258 22.4607 56.2811 22.5213C56.4402 22.5781 56.6125 22.6065 56.7981 22.6065C56.9345 22.6065 57.0538 22.597 57.1561 22.5781C57.2583 22.5591 57.3379 22.544 57.3947 22.5326L57.7015 23.936C57.603 23.9739 57.4629 24.0118 57.2811 24.0497C57.0993 24.0913 56.872 24.1141 56.5993 24.1179C56.1523 24.1254 55.7356 24.0459 55.3493 23.8792C54.9629 23.7126 54.6504 23.455 54.4118 23.1065C54.1731 22.758 54.0538 22.3205 54.0538 21.794V13.186Z" fill="#2E2E2E"/>
<path d="M45.7648 18.8227V24.0045H44.0659V15.2772H45.6966V16.6977H45.8046C46.0053 16.2355 46.3197 15.8643 46.7477 15.584C47.1796 15.3037 47.7231 15.1636 48.3784 15.1636C48.9731 15.1636 49.4939 15.2886 49.9409 15.5386C50.3879 15.7848 50.7345 16.1522 50.9807 16.6408C51.2269 17.1295 51.35 17.7337 51.35 18.4533V24.0045H49.6511V18.6579C49.6511 18.0253 49.4864 17.531 49.1568 17.1749C48.8273 16.8151 48.3746 16.6352 47.7989 16.6352C47.4049 16.6352 47.0546 16.7204 46.7477 16.8908C46.4447 17.0613 46.2042 17.3113 46.0261 17.6408C45.8519 17.9666 45.7648 18.3605 45.7648 18.8227Z" fill="#2E2E2E"/>
<path d="M41.8055 12.3682V24.0045H40.0498V12.3682H41.8055Z" fill="#2E2E2E"/>
<defs>
<filter id="filter0_dii_2097_14486" x="0.5" y="1.5" width="33" height="33" filterUnits="userSpaceOnUse" color-interpolation-filters="sRGB">
<feFlood flood-opacity="0" result="BackgroundImageFix"/>
<feColorMatrix in="SourceAlpha" type="matrix" values="0 0 0 0 0 0 0 0 0 0 0 0 0 0 0 0 0 0 127 0" result="hardAlpha"/>
<feMorphology radius="0.5" operator="dilate" in="SourceAlpha" result="effect1_dropShadow_2097_14486"/>
<feOffset/>
<feComposite in2="hardAlpha" operator="out"/>
<feColorMatrix type="matrix" values="0 0 0 0 0.0588235 0 0 0 0 0.0588235 0 0 0 0 0.0588235 0 0 0 1 0"/>
<feBlend mode="normal" in2="BackgroundImageFix" result="effect1_dropShadow_2097_14486"/>
<feBlend mode="normal" in="SourceGraphic" in2="effect1_dropShadow_2097_14486" result="shape"/>
<feColorMatrix in="SourceAlpha" type="matrix" values="0 0 0 0 0 0 0 0 0 0 0 0 0 0 0 0 0 0 127 0" result="hardAlpha"/>
<feOffset dy="0.125"/>
<feGaussianBlur stdDeviation="0.375"/>
<feComposite in2="hardAlpha" operator="arithmetic" k2="-1" k3="1"/>
<feColorMatrix type="matrix" values="0 0 0 0 1 0 0 0 0 1 0 0 0 0 1 0 0 0 0.06 0"/>
<feBlend mode="normal" in2="shape" result="effect2_innerShadow_2097_14486"/>
<feColorMatrix in="SourceAlpha" type="matrix" values="0 0 0 0 0 0 0 0 0 0 0 0 0 0 0 0 0 0 127 0" result="hardAlpha"/>
<feOffset dy="-0.4375"/>
<feGaussianBlur stdDeviation="0.142857"/>
<feComposite in2="hardAlpha" operator="arithmetic" k2="-1" k3="1"/>
<feColorMatrix type="matrix" values="0 0 0 0 1 0 0 0 0 1 0 0 0 0 1 0 0 0 0.12 0"/>
<feBlend mode="normal" in2="effect2_innerShadow_2097_14486" result="effect3_innerShadow_2097_14486"/>
</filter>
<filter id="filter1_di_2097_14486" x="6.60693" y="7.71408" width="20.7861" height="21.3035" filterUnits="userSpaceOnUse" color-interpolation-filters="sRGB">
<feFlood flood-opacity="0" result="BackgroundImageFix"/>
<feColorMatrix in="SourceAlpha" type="matrix" values="0 0 0 0 0 0 0 0 0 0 0 0 0 0 0 0 0 0 127 0" result="hardAlpha"/>
<feOffset dy="0.625"/>
<feGaussianBlur stdDeviation="0.625"/>
<feComposite in2="hardAlpha" operator="out"/>
<feColorMatrix type="matrix" values="0 0 0 0 0 0 0 0 0 0 0 0 0 0 0 0 0 0 0.3 0"/>
<feBlend mode="normal" in2="BackgroundImageFix" result="effect1_dropShadow_2097_14486"/>
<feBlend mode="normal" in="SourceGraphic" in2="effect1_dropShadow_2097_14486" result="shape"/>
<feColorMatrix in="SourceAlpha" type="matrix" values="0 0 0 0 0 0 0 0 0 0 0 0 0 0 0 0 0 0 127 0" result="hardAlpha"/>
<feOffset dy="-1.14286"/>
<feGaussianBlur stdDeviation="5.71429"/>
<feComposite in2="hardAlpha" operator="arithmetic" k2="-1" k3="1"/>
<feColorMatrix type="matrix" values="0 0 0 0 1 0 0 0 0 1 0 0 0 0 1 0 0 0 0.4 0"/>
<feBlend mode="normal" in2="shape" result="effect2_innerShadow_2097_14486"/>
</filter>
<linearGradient id="paint0_linear_2097_14486" x1="9.22885" y1="13.4287" x2="9.22885" y2="22.5716" gradientUnits="userSpaceOnUse">
<stop stop-color="#FEF6F4"/>
<stop offset="1" stop-color="#D0D0D0"/>
</linearGradient>
<linearGradient id="paint1_linear_2097_14486" x1="24.7718" y1="15.2573" x2="24.7718" y2="20.743" gradientUnits="userSpaceOnUse">
<stop stop-color="#FEF6F4"/>
<stop offset="1" stop-color="#D0D0D0"/>
</linearGradient>
<linearGradient id="paint2_linear_2097_14486" x1="16.9995" y1="10.6855" x2="16.9995" y2="25.3145" gradientUnits="userSpaceOnUse">
<stop stop-color="#FEF6F4"/>
<stop offset="1" stop-color="#D0D0D0"/>
</linearGradient>
<linearGradient id="paint3_linear_2097_14486" x1="20.6572" y1="11.6001" x2="20.6572" y2="15.2572" gradientUnits="userSpaceOnUse">
<stop stop-color="#FEF6F4"/>
<stop offset="1" stop-color="#D0D0D0"/>
</linearGradient>
</defs>
</svg>
