<svg width="149" height="46" viewBox="0 0 149 46" fill="none" xmlns="http://www.w3.org/2000/svg">
<rect x="1.27783" y="2.55566" width="40.8889" height="40.8889" rx="8.7619" fill="#EBEBEB"/>
<g filter="url(#filter0_dii_2097_14486)">
<rect x="1.27783" y="2.55566" width="40.8889" height="40.8889" rx="10.2222" fill="#1A1A1A"/>
</g>
<g filter="url(#filter1_di_2097_14486)">
<rect x="10.04" y="17.1587" width="3.50476" height="11.6825" rx="1.75238" fill="url(#paint0_linear_2097_14486)"/>
<rect x="29.9004" y="19.4956" width="3.50476" height="7.00952" rx="1.75238" fill="url(#paint1_linear_2097_14486)"/>
<path d="M21.7217 13.6538C22.205 13.6538 22.6749 13.7126 23.124 13.8218C22.259 14.6699 21.7227 15.8516 21.7227 17.1587C21.7227 19.7395 23.8147 21.8315 26.3955 21.8315C26.7988 21.8315 27.1902 21.7811 27.5635 21.6851V26.5796C27.5635 29.764 24.9477 32.3462 21.7217 32.3462C18.4959 32.3459 15.8809 29.7638 15.8809 26.5796V19.4194C15.881 16.2353 18.496 13.6541 21.7217 13.6538Z" fill="url(#paint2_linear_2097_14486)"/>
<path d="M26.0405 15.1117C26.1194 14.7258 26.6708 14.7258 26.7497 15.1117C26.9239 15.964 27.5899 16.63 28.4422 16.8042C28.8281 16.8831 28.8281 17.4345 28.4422 17.5133C27.5899 17.6875 26.9239 18.3536 26.7497 19.2059C26.6708 19.5918 26.1194 19.5918 26.0405 19.2059C25.8663 18.3536 25.2003 17.6875 24.348 17.5133C23.9621 17.4345 23.9621 16.8831 24.348 16.8042C25.2003 16.63 25.8663 15.964 26.0405 15.1117Z" fill="url(#paint3_linear_2097_14486)"/>
</g>
<path d="M135.511 30.6725V19.521H137.682V30.6725H135.511ZM136.607 17.8004C136.229 17.8004 135.905 17.6745 135.634 17.4228C135.368 17.1663 135.235 16.8614 135.235 16.5081C135.235 16.1499 135.368 15.845 135.634 15.5933C135.905 15.3368 136.229 15.2085 136.607 15.2085C136.985 15.2085 137.306 15.3368 137.573 15.5933C137.844 15.845 137.979 16.1499 137.979 16.5081C137.979 16.8614 137.844 17.1663 137.573 17.4228C137.306 17.6745 136.985 17.8004 136.607 17.8004Z" fill="#2E2E2E"/>
<path d="M127.321 30.919C126.614 30.919 125.975 30.7884 125.404 30.527C124.833 30.2608 124.38 29.876 124.046 29.3726C123.717 28.8693 123.553 28.2522 123.553 27.5213C123.553 26.8921 123.674 26.3742 123.916 25.9677C124.158 25.5611 124.484 25.2392 124.896 25.0021C125.307 24.7649 125.767 24.5858 126.275 24.4648C126.783 24.3438 127.301 24.2519 127.829 24.1889C128.497 24.1115 129.039 24.0486 129.455 24.0002C129.871 23.9469 130.174 23.8622 130.363 23.7461C130.551 23.6299 130.646 23.4411 130.646 23.1798V23.129C130.646 22.4949 130.467 22.0036 130.109 21.6552C129.755 21.3067 129.228 21.1324 128.526 21.1324C127.795 21.1324 127.219 21.2946 126.798 21.6189C126.382 21.9383 126.094 22.294 125.934 22.6861L123.894 22.2214C124.136 21.5438 124.489 20.9969 124.954 20.5807C125.423 20.1596 125.963 19.8547 126.573 19.6659C127.183 19.4723 127.824 19.3755 128.497 19.3755C128.942 19.3755 129.414 19.4287 129.913 19.5352C130.416 19.6369 130.885 19.8256 131.321 20.1015C131.761 20.3774 132.122 20.7718 132.403 21.2849C132.684 21.7931 132.824 22.4538 132.824 23.2669V30.6722H130.704V29.1476H130.617C130.476 29.4283 130.266 29.7042 129.985 29.9752C129.704 30.2463 129.344 30.4713 128.903 30.6504C128.463 30.8295 127.935 30.919 127.321 30.919ZM127.793 29.1766C128.393 29.1766 128.906 29.058 129.332 28.8209C129.763 28.5837 130.089 28.274 130.312 27.8916C130.539 27.5044 130.653 27.0906 130.653 26.6501V25.2126C130.576 25.29 130.426 25.3627 130.203 25.4304C129.985 25.4933 129.736 25.549 129.455 25.5974C129.174 25.641 128.901 25.6821 128.635 25.7208C128.369 25.7547 128.146 25.7837 127.967 25.8079C127.546 25.8612 127.161 25.9507 126.813 26.0766C126.469 26.2024 126.193 26.3839 125.985 26.6211C125.782 26.8534 125.68 27.1632 125.68 27.5504C125.68 28.0876 125.878 28.4942 126.275 28.7701C126.672 29.0411 127.178 29.1766 127.793 29.1766Z" fill="#2E2E2E"/>
<path d="M119.92 30.8099C119.523 30.8099 119.182 30.6695 118.896 30.3888C118.611 30.1032 118.468 29.7596 118.468 29.3578C118.468 28.961 118.611 28.6222 118.896 28.3414C119.182 28.0559 119.523 27.9131 119.92 27.9131C120.317 27.9131 120.658 28.0559 120.943 28.3414C121.229 28.6222 121.372 28.961 121.372 29.3578C121.372 29.624 121.304 29.8685 121.169 30.0911C121.038 30.3089 120.864 30.4832 120.646 30.6138C120.428 30.7445 120.186 30.8099 119.92 30.8099Z" fill="#2E2E2E"/>
<path d="M111.073 30.8973C110.027 30.8973 109.115 30.6577 108.336 30.1785C107.556 29.6994 106.951 29.029 106.521 28.1675C106.09 27.3059 105.875 26.2992 105.875 25.1473C105.875 23.9905 106.09 22.9789 106.521 22.1125C106.951 21.2462 107.556 20.5734 108.336 20.0942C109.115 19.6151 110.027 19.3755 111.073 19.3755C112.118 19.3755 113.031 19.6151 113.81 20.0942C114.589 20.5734 115.194 21.2462 115.625 22.1125C116.056 22.9789 116.271 23.9905 116.271 25.1473C116.271 26.2992 116.056 27.3059 115.625 28.1675C115.194 29.029 114.589 29.6994 113.81 30.1785C113.031 30.6577 112.118 30.8973 111.073 30.8973ZM111.08 29.075C111.758 29.075 112.319 28.8959 112.764 28.5377C113.21 28.1796 113.539 27.7028 113.752 27.1075C113.97 26.5122 114.078 25.8563 114.078 25.14C114.078 24.4285 113.97 23.7751 113.752 23.1798C113.539 22.5796 113.21 22.098 112.764 21.735C112.319 21.372 111.758 21.1905 111.08 21.1905C110.398 21.1905 109.831 21.372 109.381 21.735C108.936 22.098 108.604 22.5796 108.387 23.1798C108.174 23.7751 108.067 24.4285 108.067 25.14C108.067 25.8563 108.174 26.5122 108.387 27.1075C108.604 27.7028 108.936 28.1796 109.381 28.5377C109.831 28.8959 110.398 29.075 111.08 29.075Z" fill="#2E2E2E"/>
<path d="M104.92 19.521L100.876 30.6725H98.5526L94.5015 19.521H96.832L99.6561 28.1024H99.7723L102.589 19.521H104.92Z" fill="#2E2E2E"/>
<path d="M87.3979 30.6725V19.521H89.4961V21.2925H89.6123C89.8156 20.6923 90.1737 20.2204 90.6868 19.8767C91.2047 19.5282 91.7903 19.354 92.4437 19.354C92.5792 19.354 92.739 19.3588 92.9229 19.3685C93.1116 19.3782 93.2593 19.3903 93.3658 19.4048V21.4812C93.2786 21.457 93.1237 21.4304 92.9011 21.4014C92.6785 21.3675 92.4558 21.3505 92.2332 21.3505C91.7201 21.3505 91.2627 21.4594 90.861 21.6772C90.4641 21.8902 90.1495 22.1879 89.9172 22.5702C89.6849 22.9478 89.5687 23.3785 89.5687 23.8625V30.6725H87.3979Z" fill="#2E2E2E"/>
<path d="M80.4097 30.8973C79.311 30.8973 78.3647 30.6625 77.571 30.193C76.782 29.7187 76.1722 29.0532 75.7414 28.1965C75.3155 27.335 75.1025 26.3258 75.1025 25.169C75.1025 24.0268 75.3155 23.0201 75.7414 22.1488C76.1722 21.2776 76.7724 20.5976 77.5419 20.1088C78.3163 19.6199 79.2214 19.3755 80.2572 19.3755C80.8864 19.3755 81.4963 19.4795 82.0868 19.6877C82.6772 19.8958 83.2072 20.2225 83.6767 20.6678C84.1462 21.1131 84.5165 21.6915 84.7875 22.403C85.0586 23.1096 85.1941 23.9687 85.1941 24.9803V25.7499H76.3295V24.1236H83.0669C83.0669 23.5525 82.9507 23.0467 82.7184 22.6062C82.4861 22.1609 82.1594 21.81 81.7383 21.5535C81.322 21.297 80.8332 21.1687 80.2717 21.1687C79.6619 21.1687 79.1295 21.3188 78.6745 21.6189C78.2244 21.9141 77.8759 22.3013 77.6291 22.7805C77.3871 23.2548 77.266 23.7703 77.266 24.3269V25.5974C77.266 26.3428 77.3967 26.9768 77.6581 27.4995C77.9243 28.0223 78.2946 28.4216 78.7689 28.6975C79.2432 28.9685 79.7974 29.104 80.4315 29.104C80.8429 29.104 81.218 29.0459 81.5568 28.9298C81.8956 28.8088 82.1884 28.6297 82.4352 28.3925C82.6821 28.1554 82.8708 27.8625 83.0015 27.5141L85.0561 27.8843C84.8916 28.4893 84.5963 29.0193 84.1704 29.4743C83.7493 29.9244 83.2193 30.2753 82.5804 30.527C81.9464 30.7738 81.2228 30.8973 80.4097 30.8973Z" fill="#2E2E2E"/>
<path d="M73.5263 19.5203V21.2628H67.4351V19.5203H73.5263ZM69.0686 16.8486H71.2394V27.3976C71.2394 27.8186 71.3023 28.1357 71.4281 28.3486C71.554 28.5568 71.7161 28.6995 71.9145 28.777C72.1178 28.8496 72.338 28.8859 72.5752 28.8859C72.7495 28.8859 72.9019 28.8738 73.0326 28.8496C73.1633 28.8254 73.2649 28.806 73.3375 28.7915L73.7296 30.5847C73.6037 30.6331 73.4246 30.6815 73.1923 30.7299C72.96 30.7832 72.6696 30.8122 72.3211 30.8171C71.75 30.8267 71.2176 30.7251 70.7239 30.5121C70.2302 30.2992 69.8309 29.9701 69.526 29.5248C69.221 29.0795 69.0686 28.5205 69.0686 27.8477V16.8486Z" fill="#2E2E2E"/>
<path d="M58.4774 24.051V30.6722H56.3066V19.5207H58.3903V21.3357H58.5282C58.7848 20.7452 59.1865 20.2709 59.7334 19.9127C60.2852 19.5546 60.9797 19.3755 61.8171 19.3755C62.5769 19.3755 63.2425 19.5352 63.8136 19.8547C64.3847 20.1693 64.8276 20.6387 65.1422 21.2631C65.4568 21.8875 65.6141 22.6595 65.6141 23.5791V30.6722H63.4433V23.8405C63.4433 23.0322 63.2328 22.4005 62.8117 21.9456C62.3906 21.4858 61.8122 21.2559 61.0765 21.2559C60.5732 21.2559 60.1255 21.3648 59.7334 21.5826C59.3462 21.8004 59.0389 22.1198 58.8114 22.5409C58.5887 22.9571 58.4774 23.4605 58.4774 24.051Z" fill="#2E2E2E"/>
<path d="M53.4182 15.8037V30.6724H51.1748V15.8037H53.4182Z" fill="#2E2E2E"/>
<defs>
<filter id="filter0_dii_2097_14486" x="0.638943" y="1.91678" width="42.1664" height="42.1664" filterUnits="userSpaceOnUse" color-interpolation-filters="sRGB">
<feFlood flood-opacity="0" result="BackgroundImageFix"/>
<feColorMatrix in="SourceAlpha" type="matrix" values="0 0 0 0 0 0 0 0 0 0 0 0 0 0 0 0 0 0 127 0" result="hardAlpha"/>
<feMorphology radius="0.638889" operator="dilate" in="SourceAlpha" result="effect1_dropShadow_2097_14486"/>
<feOffset/>
<feComposite in2="hardAlpha" operator="out"/>
<feColorMatrix type="matrix" values="0 0 0 0 0.0588235 0 0 0 0 0.0588235 0 0 0 0 0.0588235 0 0 0 1 0"/>
<feBlend mode="normal" in2="BackgroundImageFix" result="effect1_dropShadow_2097_14486"/>
<feBlend mode="normal" in="SourceGraphic" in2="effect1_dropShadow_2097_14486" result="shape"/>
<feColorMatrix in="SourceAlpha" type="matrix" values="0 0 0 0 0 0 0 0 0 0 0 0 0 0 0 0 0 0 127 0" result="hardAlpha"/>
<feOffset dy="0.159722"/>
<feGaussianBlur stdDeviation="0.479167"/>
<feComposite in2="hardAlpha" operator="arithmetic" k2="-1" k3="1"/>
<feColorMatrix type="matrix" values="0 0 0 0 1 0 0 0 0 1 0 0 0 0 1 0 0 0 0.06 0"/>
<feBlend mode="normal" in2="shape" result="effect2_innerShadow_2097_14486"/>
<feColorMatrix in="SourceAlpha" type="matrix" values="0 0 0 0 0 0 0 0 0 0 0 0 0 0 0 0 0 0 127 0" result="hardAlpha"/>
<feOffset dy="-0.559028"/>
<feGaussianBlur stdDeviation="0.18254"/>
<feComposite in2="hardAlpha" operator="arithmetic" k2="-1" k3="1"/>
<feColorMatrix type="matrix" values="0 0 0 0 1 0 0 0 0 1 0 0 0 0 1 0 0 0 0.12 0"/>
<feBlend mode="normal" in2="effect2_innerShadow_2097_14486" result="effect3_innerShadow_2097_14486"/>
</filter>
<filter id="filter1_di_2097_14486" x="8.44233" y="9.85707" width="26.5602" height="27.2214" filterUnits="userSpaceOnUse" color-interpolation-filters="sRGB">
<feFlood flood-opacity="0" result="BackgroundImageFix"/>
<feColorMatrix in="SourceAlpha" type="matrix" values="0 0 0 0 0 0 0 0 0 0 0 0 0 0 0 0 0 0 127 0" result="hardAlpha"/>
<feOffset dy="0.798611"/>
<feGaussianBlur stdDeviation="0.798611"/>
<feComposite in2="hardAlpha" operator="out"/>
<feColorMatrix type="matrix" values="0 0 0 0 0 0 0 0 0 0 0 0 0 0 0 0 0 0 0.3 0"/>
<feBlend mode="normal" in2="BackgroundImageFix" result="effect1_dropShadow_2097_14486"/>
<feBlend mode="normal" in="SourceGraphic" in2="effect1_dropShadow_2097_14486" result="shape"/>
<feColorMatrix in="SourceAlpha" type="matrix" values="0 0 0 0 0 0 0 0 0 0 0 0 0 0 0 0 0 0 127 0" result="hardAlpha"/>
<feOffset dy="-1.46032"/>
<feGaussianBlur stdDeviation="7.30159"/>
<feComposite in2="hardAlpha" operator="arithmetic" k2="-1" k3="1"/>
<feColorMatrix type="matrix" values="0 0 0 0 1 0 0 0 0 1 0 0 0 0 1 0 0 0 0.4 0"/>
<feBlend mode="normal" in2="shape" result="effect2_innerShadow_2097_14486"/>
</filter>
<linearGradient id="paint0_linear_2097_14486" x1="11.7924" y1="17.1587" x2="11.7924" y2="28.8412" gradientUnits="userSpaceOnUse">
<stop stop-color="#FEF6F4"/>
<stop offset="1" stop-color="#D0D0D0"/>
</linearGradient>
<linearGradient id="paint1_linear_2097_14486" x1="31.6528" y1="19.4956" x2="31.6528" y2="26.5051" gradientUnits="userSpaceOnUse">
<stop stop-color="#FEF6F4"/>
<stop offset="1" stop-color="#D0D0D0"/>
</linearGradient>
<linearGradient id="paint2_linear_2097_14486" x1="21.7222" y1="13.6538" x2="21.7222" y2="32.3462" gradientUnits="userSpaceOnUse">
<stop stop-color="#FEF6F4"/>
<stop offset="1" stop-color="#D0D0D0"/>
</linearGradient>
<linearGradient id="paint3_linear_2097_14486" x1="26.3951" y1="14.8223" x2="26.3951" y2="19.4953" gradientUnits="userSpaceOnUse">
<stop stop-color="#FEF6F4"/>
<stop offset="1" stop-color="#D0D0D0"/>
</linearGradient>
</defs>
</svg>
